<svg xmlns="http://www.w3.org/2000/svg" width="1080" height="1920" viewBox="0 0 1 1" preserveAspectRatio="none"><rect x="0" y="0" width="1" height="1" fill="#e3e6df"/><rect x="0" y="0.82" width="1" height="0.18" fill="#6d7378"/><rect x="0.02" y="0.12" width="0.22" height="0.28" fill="#576670"/><rect x="0.032" y="0.132" width="0.196" height="0.256" fill="#b4d5df"/><rect x="0.27" y="0.12" width="0.22" height="0.28" fill="#576670"/><rect x="0.28200000000000003" y="0.132" width="0.196" height="0.256" fill="#b4d5df"/><rect x="0.52" y="0.12" width="0.22" height="0.28" fill="#576670"/><rect x="0.532" y="0.132" width="0.196" height="0.256" fill="#b4d5df"/><rect x="0.77" y="0.12" width="0.22" height="0.28" fill="#576670"/><rect x="0.782" y="0.132" width="0.196" height="0.256" fill="#b4d5df"/><rect x="0" y="0.42" width="1" height="0.03" fill="#c8372d"/><rect x="0.04" y="0.5" width="0.16" height="0.08" fill="#2c3a5a"/><rect x="0.06" y="0.58" width="0.12" height="0.18" fill="#2c3a5a"/><rect x="0.06" y="0.6" width="0.12" height="0.1" fill="#4e6fa0"/><rect x="0.3" y="0.5" width="0.16" height="0.08" fill="#2c3a5a"/><rect x="0.32" y="0.58" width="0.12" height="0.18" fill="#2c3a5a"/><rect x="0.32" y="0.6" width="0.12" height="0.1" fill="#4e6fa0"/><rect x="0.56" y="0.5" width="0.16" height="0.08" fill="#2c3a5a"/><rect x="0.5800000000000001" y="0.58" width="0.12" height="0.18" fill="#2c3a5a"/><rect x="0.5800000000000001" y="0.6" width="0.12" height="0.1" fill="#4e6fa0"/><rect x="0.82" y="0.5" width="0.16" height="0.08" fill="#2c3a5a"/><rect x="0.84" y="0.58" width="0.12" height="0.18" fill="#2c3a5a"/><rect x="0.84" y="0.6" width="0.12" height="0.1" fill="#4e6fa0"/><rect x="0" y="0.06" width="1" height="0.012" fill="#f2c230"/><rect x="0.1" y="0.06" width="0.01" height="0.36" fill="#9aa6b1"/><rect x="0.30000000000000004" y="0.06" width="0.01" height="0.36" fill="#9aa6b1"/><rect x="0.5" y="0.06" width="0.01" height="0.36" fill="#9aa6b1"/><rect x="0.7000000000000001" y="0.06" width="0.01" height="0.36" fill="#9aa6b1"/><rect x="0.9" y="0.06" width="0.01" height="0.36" fill="#9aa6b1"/><ellipse cx="0.105" cy="0.11" rx="0.012" ry="0.02" fill="#f2c230"/><ellipse cx="0.305" cy="0.11" rx="0.012" ry="0.02" fill="#f2c230"/><ellipse cx="0.505" cy="0.11" rx="0.012" ry="0.02" fill="#f2c230"/><ellipse cx="0.7050000000000001" cy="0.11" rx="0.012" ry="0.02" fill="#f2c230"/><ellipse cx="0.905" cy="0.11" rx="0.012" ry="0.02" fill="#f2c230"/></svg>