<svg xmlns="http://www.w3.org/2000/svg" width="1080" height="1920" viewBox="0 0 1 1" preserveAspectRatio="none"><rect x="0" y="0" width="1" height="1" fill="#ebe3d7"/><rect x="0" y="0.8" width="1" height="0.2" fill="#b1a08b"/><rect x="0" y="0.79" width="1" height="0.01" fill="#d2c0a9"/><rect x="0.049999999999999996" y="0.09000000000000001" width="0.37" height="0.46" fill="#486778"/><rect x="0.06" y="0.1" width="0.35" height="0.44" fill="#b4d5df"/><polygon points="0.06,0.1 0.41,0.1 0.06,0.54" fill="#d9edf0"/><rect x="0.22799999999999998" y="0.1" width="0.01" height="0.44" fill="#eff6ed"/><rect x="0.06" y="0.342" width="0.35" height="0.01" fill="#eff6ed"/><rect x="0.58" y="0.14" width="0.33" height="0.3" fill="#6d8077"/><rect x="0.62" y="0.2" width="0.24" height="0.009" fill="#d8d8bb"/><rect x="0.62" y="0.245" width="0.24" height="0.009" fill="#d8d8bb"/><rect x="0.62" y="0.29000000000000004" width="0.24" height="0.009" fill="#d8d8bb"/><rect x="0.62" y="0.335" width="0.24" height="0.009" fill="#d8d8bb"/><rect x="0.53" y="0.62" width="0.47" height="0.18" fill="#ab9275"/><rect x="0.53" y="0.61" width="0.47" height="0.026" fill="#615b50"/><rect x="0.07" y="0.78" width="0.015" height="0.12" fill="#7c6857"/><rect x="0.27" y="0.78" width="0.015" height="0.12" fill="#7c6857"/><rect x="0.05" y="0.75" width="0.25" height="0.025" fill="#bd9475"/><ellipse cx="0.12" cy="0.72" rx="0.028" ry="0.025" fill="#ece1cd"/><ellipse cx="0.23" cy="0.72" rx="0.028" ry="0.025" fill="#ece1cd"/></svg>