<svg xmlns="http://www.w3.org/2000/svg" width="1080" height="1920" viewBox="0 0 1 1" preserveAspectRatio="none"><rect x="0" y="0" width="1" height="1" fill="#ebe3d7"/><rect x="0" y="0.8" width="1" height="0.2" fill="#b1a08b"/><rect x="0" y="0.79" width="1" height="0.01" fill="#d2c0a9"/><rect x="0.03" y="0.09000000000000001" width="0.19999999999999998" height="0.4" fill="#486778"/><rect x="0.04" y="0.1" width="0.18" height="0.38" fill="#b4d5df"/><polygon points="0.04,0.1 0.22,0.1 0.04,0.48" fill="#d9edf0"/><rect x="0.12639999999999998" y="0.1" width="0.01" height="0.38" fill="#eff6ed"/><rect x="0.04" y="0.30900000000000005" width="0.18" height="0.01" fill="#eff6ed"/><rect x="0.77" y="0.09000000000000001" width="0.19999999999999998" height="0.4" fill="#486778"/><rect x="0.78" y="0.1" width="0.18" height="0.38" fill="#b4d5df"/><polygon points="0.78,0.1 0.96,0.1 0.78,0.48" fill="#d9edf0"/><rect x="0.8664000000000001" y="0.1" width="0.01" height="0.38" fill="#eff6ed"/><rect x="0.78" y="0.30900000000000005" width="0.18" height="0.01" fill="#eff6ed"/><rect x="0.3" y="0.14" width="0.4" height="0.24" fill="#e3d9bd"/><rect x="0.32" y="0.17" width="0.05" height="0.07" fill="#c8372d"/><rect x="0.382" y="0.17" width="0.05" height="0.07" fill="#2f6f8f"/><rect x="0.444" y="0.17" width="0.05" height="0.07" fill="#f2c230"/><rect x="0.506" y="0.17" width="0.05" height="0.07" fill="#5f8f4f"/><rect x="0.5680000000000001" y="0.17" width="0.05" height="0.07" fill="#c8372d"/><rect x="0.63" y="0.17" width="0.05" height="0.07" fill="#2f6f8f"/><rect x="0.32" y="0.27" width="0.05" height="0.07" fill="#f2c230"/><rect x="0.382" y="0.27" width="0.05" height="0.07" fill="#5f8f4f"/><rect x="0.444" y="0.27" width="0.05" height="0.07" fill="#c8372d"/><rect x="0.506" y="0.27" width="0.05" height="0.07" fill="#2f6f8f"/><rect x="0.5680000000000001" y="0.27" width="0.05" height="0.07" fill="#f2c230"/><rect x="0.63" y="0.27" width="0.05" height="0.07" fill="#5f8f4f"/><rect x="0.06" y="0.65" width="0.015" height="0.12" fill="#7c6857"/><rect x="0.19" y="0.65" width="0.015" height="0.12" fill="#7c6857"/><rect x="0.04" y="0.62" width="0.18" height="0.025" fill="#bd9475"/><rect x="0.31" y="0.65" width="0.015" height="0.12" fill="#7c6857"/><rect x="0.43999999999999995" y="0.65" width="0.015" height="0.12" fill="#7c6857"/><rect x="0.29" y="0.62" width="0.18" height="0.025" fill="#bd9475"/><rect x="0.56" y="0.65" width="0.015" height="0.12" fill="#7c6857"/><rect x="0.69" y="0.65" width="0.015" height="0.12" fill="#7c6857"/><rect x="0.54" y="0.62" width="0.18" height="0.025" fill="#bd9475"/><rect x="0.81" y="0.65" width="0.015" height="0.12" fill="#7c6857"/><rect x="0.94" y="0.65" width="0.015" height="0.12" fill="#7c6857"/><rect x="0.79" y="0.62" width="0.18" height="0.025" fill="#bd9475"/><rect x="0.06" y="0.79" width="0.015" height="0.12" fill="#7c6857"/><rect x="0.19" y="0.79" width="0.015" height="0.12" fill="#7c6857"/><rect x="0.04" y="0.76" width="0.18" height="0.025" fill="#bd9475"/><rect x="0.31" y="0.79" width="0.015" height="0.12" fill="#7c6857"/><rect x="0.43999999999999995" y="0.79" width="0.015" height="0.12" fill="#7c6857"/><rect x="0.29" y="0.76" width="0.18" height="0.025" fill="#bd9475"/><rect x="0.56" y="0.79" width="0.015" height="0.12" fill="#7c6857"/><rect x="0.69" y="0.79" width="0.015" height="0.12" fill="#7c6857"/><rect x="0.54" y="0.76" width="0.18" height="0.025" fill="#bd9475"/><rect x="0.81" y="0.79" width="0.015" height="0.12" fill="#7c6857"/><rect x="0.94" y="0.79" width="0.015" height="0.12" fill="#7c6857"/><rect x="0.79" y="0.76" width="0.18" height="0.025" fill="#bd9475"/><rect x="0.44" y="0.42" width="0.12" height="0.14" fill="#6f8790"/><ellipse cx="0.5" cy="0.49" rx="0.04" ry="0.05" fill="#f4f0e6"/></svg>