<svg xmlns="http://www.w3.org/2000/svg" width="1080" height="1920" viewBox="0 0 1 1" preserveAspectRatio="none"><rect x="0" y="0" width="1" height="1" fill="#c4dfea"/><ellipse cx="0.84" cy="0.16" rx="0.065" ry="0.1" fill="#fff0ce"/><rect x="0" y="0.58" width="1" height="0.42" fill="#a4bea5"/><polygon points="0.48,0.5 0.56,0.5 0.75,1 0.25,1" fill="#c2a98a"/><rect x="0" y="0.2" width="0.025" height="0.5" fill="#716650"/><polygon points="-0.12,0.52 0.015,0.04 0.15,0.52" fill="#7da28b"/><rect x="0.16" y="0.2" width="0.025" height="0.5" fill="#716650"/><polygon points="0.04000000000000001,0.52 0.175,0.04 0.31,0.52" fill="#668e76"/><rect x="0.32" y="0.2" width="0.025" height="0.5" fill="#716650"/><polygon points="0.2,0.52 0.335,0.04 0.47,0.52" fill="#7da28b"/><rect x="0.48" y="0.2" width="0.025" height="0.5" fill="#716650"/><polygon points="0.36,0.52 0.495,0.04 0.63,0.52" fill="#668e76"/><rect x="0.64" y="0.2" width="0.025" height="0.5" fill="#716650"/><polygon points="0.52,0.52 0.655,0.04 0.79,0.52" fill="#7da28b"/><rect x="0.8" y="0.2" width="0.025" height="0.5" fill="#716650"/><polygon points="0.68,0.52 0.8150000000000001,0.04 0.9500000000000001,0.52" fill="#668e76"/><rect x="0.96" y="0.2" width="0.025" height="0.5" fill="#716650"/><polygon points="0.84,0.52 0.975,0.04 1.1099999999999999,0.52" fill="#7da28b"/></svg>