<svg xmlns="http://www.w3.org/2000/svg" width="1080" height="1920" viewBox="0 0 1 1" preserveAspectRatio="none"><rect x="0" y="0" width="1" height="1" fill="#e7dcc6"/><rect x="0" y="0.74" width="1" height="0.26" fill="#c99a64"/><rect x="0" y="0.74" width="0.004" height="0.26" fill="#b98b5a"/><rect x="0.12" y="0.74" width="0.004" height="0.26" fill="#b98b5a"/><rect x="0.24" y="0.74" width="0.004" height="0.26" fill="#b98b5a"/><rect x="0.36" y="0.74" width="0.004" height="0.26" fill="#b98b5a"/><rect x="0.48" y="0.74" width="0.004" height="0.26" fill="#b98b5a"/><rect x="0.6" y="0.74" width="0.004" height="0.26" fill="#b98b5a"/><rect x="0.72" y="0.74" width="0.004" height="0.26" fill="#b98b5a"/><rect x="0.84" y="0.74" width="0.004" height="0.26" fill="#b98b5a"/><rect x="0.96" y="0.74" width="0.004" height="0.26" fill="#b98b5a"/><polygon points="0.2,1 0.24,0.74 0.25,0.74 0.21,1" fill="#f4f0e6"/><polygon points="0.8,1 0.76,0.74 0.75,0.74 0.79,1" fill="#f4f0e6"/><ellipse cx="0.5" cy="0.88" rx="0.12" ry="0.04" fill="#c8372d"/><rect x="0.04" y="0.16" width="0.012" height="0.56" fill="#a58a72"/><rect x="0.065" y="0.16" width="0.012" height="0.56" fill="#a58a72"/><rect x="0.09" y="0.16" width="0.012" height="0.56" fill="#a58a72"/><rect x="0.11500000000000002" y="0.16" width="0.012" height="0.56" fill="#a58a72"/><rect x="0.14" y="0.16" width="0.012" height="0.56" fill="#a58a72"/><rect x="0.165" y="0.16" width="0.012" height="0.56" fill="#a58a72"/><rect x="0.04" y="0.18" width="0.15" height="0.01" fill="#a58a72"/><rect x="0.04" y="0.25" width="0.15" height="0.01" fill="#a58a72"/><rect x="0.04" y="0.32" width="0.15" height="0.01" fill="#a58a72"/><rect x="0.04" y="0.39" width="0.15" height="0.01" fill="#a58a72"/><rect x="0.04" y="0.46" width="0.15" height="0.01" fill="#a58a72"/><rect x="0.04" y="0.53" width="0.15" height="0.01" fill="#a58a72"/><rect x="0.04" y="0.6000000000000001" width="0.15" height="0.01" fill="#a58a72"/><rect x="0.04" y="0.67" width="0.15" height="0.01" fill="#a58a72"/><rect x="0.8" y="0.14" width="0.012" height="0.32" fill="#5d6b73"/><rect x="0.74" y="0.1" width="0.14" height="0.1" fill="#f4f0e6"/><ellipse cx="0.81" cy="0.2" rx="0.04" ry="0.008" fill="#ef7a36"/><rect x="0.36" y="0.66" width="0.28" height="0.06" fill="#2f6f8f"/><rect x="0.36" y="0.64" width="0.28" height="0.02" fill="#4e6fa0"/></svg>