<svg xmlns="http://www.w3.org/2000/svg" width="1080" height="1920" viewBox="0 0 1 1" preserveAspectRatio="none"><rect x="0" y="0" width="1" height="1" fill="#ebe3d7"/><rect x="0" y="0.8" width="1" height="0.2" fill="#b1a08b"/><rect x="0" y="0.79" width="1" height="0.01" fill="#d2c0a9"/><rect x="0.04" y="0.09000000000000001" width="0.28" height="0.45" fill="#486778"/><rect x="0.05" y="0.1" width="0.26" height="0.43" fill="#b4d5df"/><polygon points="0.05,0.1 0.31,0.1 0.05,0.53" fill="#d9edf0"/><rect x="0.1748" y="0.1" width="0.01" height="0.43" fill="#eff6ed"/><rect x="0.05" y="0.3365" width="0.26" height="0.01" fill="#eff6ed"/><rect x="0.52" y="0.14" width="0.4" height="0.36" fill="#596e77"/><rect x="0.535" y="0.155" width="0.37" height="0.33" fill="#dfebe8"/><polygon points="0.55,0.42 0.6,0.34 0.65,0.37 0.73,0.27 0.88,0.22" fill="#a2bfc7"/><polygon points="0.13,0.73 0.76,0.62 0.95,0.83 0.17,0.93" fill="#947a65"/><rect x="0.27" y="0.88" width="0.02" height="0.12" fill="#655447"/><rect x="0.85" y="0.8" width="0.02" height="0.2" fill="#655447"/></svg>