<svg xmlns="http://www.w3.org/2000/svg" width="1080" height="1920" viewBox="0 0 1 1" preserveAspectRatio="none"><rect x="0" y="0" width="1" height="1" fill="#ebe3d7"/><rect x="0" y="0.8" width="1" height="0.2" fill="#b1a08b"/><rect x="0" y="0.79" width="1" height="0.01" fill="#d2c0a9"/><rect x="0.08" y="0.11" width="0.30000000000000004" height="0.42000000000000004" fill="#486778"/><rect x="0.09" y="0.12" width="0.28" height="0.4" fill="#b4d5df"/><polygon points="0.09,0.12 0.37,0.12 0.09,0.52" fill="#d9edf0"/><rect x="0.22440000000000002" y="0.12" width="0.01" height="0.4" fill="#eff6ed"/><rect x="0.09" y="0.34" width="0.28" height="0.01" fill="#eff6ed"/><rect x="0.57" y="0.1" width="0.35" height="0.47" fill="#6f8790"/><rect x="0.61" y="0.13999999999999999" width="0.27" height="0.36000000000000004" fill="#665853"/><rect x="0.62" y="0.15" width="0.25" height="0.34" fill="#a58a72"/><rect x="0.632" y="0.162" width="0.022727272727272728" height="0.08533333333333334" fill="#52727f"/><rect x="0.66325" y="0.162" width="0.022727272727272728" height="0.08533333333333334" fill="#bf7d66"/><rect x="0.6945" y="0.162" width="0.022727272727272728" height="0.08533333333333334" fill="#e2c398"/><rect x="0.72575" y="0.162" width="0.022727272727272728" height="0.08533333333333334" fill="#6f8b76"/><rect x="0.757" y="0.162" width="0.022727272727272728" height="0.08533333333333334" fill="#52727f"/><rect x="0.78825" y="0.162" width="0.022727272727272728" height="0.08533333333333334" fill="#bf7d66"/><rect x="0.8195" y="0.162" width="0.022727272727272728" height="0.08533333333333334" fill="#e2c398"/><rect x="0.85075" y="0.162" width="0.022727272727272728" height="0.08533333333333334" fill="#6f8b76"/><rect x="0.62" y="0.2493333333333333" width="0.25" height="0.014" fill="#65574c"/><rect x="0.632" y="0.2753333333333333" width="0.022727272727272728" height="0.08533333333333334" fill="#52727f"/><rect x="0.66325" y="0.2753333333333333" width="0.022727272727272728" height="0.08533333333333334" fill="#bf7d66"/><rect x="0.6945" y="0.2753333333333333" width="0.022727272727272728" height="0.08533333333333334" fill="#e2c398"/><rect x="0.72575" y="0.2753333333333333" width="0.022727272727272728" height="0.08533333333333334" fill="#6f8b76"/><rect x="0.757" y="0.2753333333333333" width="0.022727272727272728" height="0.08533333333333334" fill="#52727f"/><rect x="0.78825" y="0.2753333333333333" width="0.022727272727272728" height="0.08533333333333334" fill="#bf7d66"/><rect x="0.8195" y="0.2753333333333333" width="0.022727272727272728" height="0.08533333333333334" fill="#e2c398"/><rect x="0.85075" y="0.2753333333333333" width="0.022727272727272728" height="0.08533333333333334" fill="#6f8b76"/><rect x="0.62" y="0.3626666666666667" width="0.25" height="0.014" fill="#65574c"/><rect x="0.632" y="0.3886666666666667" width="0.022727272727272728" height="0.08533333333333334" fill="#52727f"/><rect x="0.66325" y="0.3886666666666667" width="0.022727272727272728" height="0.08533333333333334" fill="#bf7d66"/><rect x="0.6945" y="0.3886666666666667" width="0.022727272727272728" height="0.08533333333333334" fill="#e2c398"/><rect x="0.72575" y="0.3886666666666667" width="0.022727272727272728" height="0.08533333333333334" fill="#6f8b76"/><rect x="0.757" y="0.3886666666666667" width="0.022727272727272728" height="0.08533333333333334" fill="#52727f"/><rect x="0.78825" y="0.3886666666666667" width="0.022727272727272728" height="0.08533333333333334" fill="#bf7d66"/><rect x="0.8195" y="0.3886666666666667" width="0.022727272727272728" height="0.08533333333333334" fill="#e2c398"/><rect x="0.85075" y="0.3886666666666667" width="0.022727272727272728" height="0.08533333333333334" fill="#6f8b76"/><rect x="0.62" y="0.476" width="0.25" height="0.014" fill="#65574c"/><rect x="0.12000000000000001" y="0.7000000000000001" width="0.015" height="0.12" fill="#7c6857"/><rect x="0.39" y="0.7000000000000001" width="0.015" height="0.12" fill="#7c6857"/><rect x="0.1" y="0.67" width="0.32" height="0.025" fill="#bd9475"/><rect x="0.22" y="0.49" width="0.12" height="0.14" fill="#384e60"/><rect x="0.23" y="0.5" width="0.1" height="0.12" fill="#93bac8"/><rect x="0.265" y="0.63" width="0.015" height="0.04" fill="#384e60"/><rect x="0.59" y="0.75" width="0.015" height="0.12" fill="#7c6857"/><rect x="0.8599999999999999" y="0.75" width="0.015" height="0.12" fill="#7c6857"/><rect x="0.57" y="0.72" width="0.32" height="0.025" fill="#bd9475"/></svg>