<svg xmlns="http://www.w3.org/2000/svg" width="1080" height="1920" viewBox="0 0 1 1" preserveAspectRatio="none"><rect x="0" y="0" width="1" height="1" fill="#b98b5a"/><rect x="0" y="0" width="1" height="0.006" fill="#a77b4d"/><rect x="0" y="0.06" width="1" height="0.006" fill="#a77b4d"/><rect x="0" y="0.12" width="1" height="0.006" fill="#a77b4d"/><rect x="0" y="0.18" width="1" height="0.006" fill="#a77b4d"/><rect x="0" y="0.24" width="1" height="0.006" fill="#a77b4d"/><rect x="0" y="0.3" width="1" height="0.006" fill="#a77b4d"/><rect x="0" y="0.36" width="1" height="0.006" fill="#a77b4d"/><rect x="0" y="0.42" width="1" height="0.006" fill="#a77b4d"/><rect x="0" y="0.48" width="1" height="0.006" fill="#a77b4d"/><rect x="0" y="0.54" width="1" height="0.006" fill="#a77b4d"/><rect x="0" y="0.6" width="1" height="0.006" fill="#a77b4d"/><rect x="0" y="0.6599999999999999" width="1" height="0.006" fill="#a77b4d"/><rect x="0" y="0.72" width="1" height="0.006" fill="#a77b4d"/><rect x="0" y="0.78" width="1" height="0.006" fill="#a77b4d"/><rect x="0" y="0.8" width="1" height="0.2" fill="#8a6542"/><rect x="0.05" y="0.5" width="0.9" height="0.06" fill="#c99a64"/><rect x="0.05" y="0.56" width="0.9" height="0.03" fill="#b0844f"/><rect x="0.05" y="0.66" width="0.9" height="0.06" fill="#c99a64"/><rect x="0.05" y="0.72" width="0.9" height="0.03" fill="#b0844f"/><rect x="0.72" y="0.36" width="0.16" height="0.2" fill="#3e4248"/><rect x="0.72" y="0.34" width="0.16" height="0.03" fill="#2c3035"/><ellipse cx="0.75" cy="0.33" rx="0.025" ry="0.015" fill="#6b7280"/><ellipse cx="0.8" cy="0.33" rx="0.025" ry="0.015" fill="#8a919c"/><ellipse cx="0.85" cy="0.33" rx="0.025" ry="0.015" fill="#5b616b"/><ellipse cx="0.75" cy="0.305" rx="0.025" ry="0.015" fill="#6b7280"/><ellipse cx="0.8" cy="0.305" rx="0.025" ry="0.015" fill="#8a919c"/><ellipse cx="0.85" cy="0.305" rx="0.025" ry="0.015" fill="#5b616b"/><rect x="0.18" y="0.4" width="0.05" height="0.04" fill="#a77b4d"/><rect x="0.2" y="0.34" width="0.008" height="0.08" fill="#7a5a36"/><rect x="0.42" y="0.1" width="0.12" height="0.06" fill="#f6e7b0"/><rect x="0.44" y="0.11" width="0.08" height="0.04" fill="#e8d49a"/></svg>