<svg xmlns="http://www.w3.org/2000/svg" width="1080" height="1920" viewBox="0 0 1 1" preserveAspectRatio="none"><rect x="0" y="0" width="1" height="1" fill="#eef0ea"/><rect x="0" y="0.8" width="1" height="0.2" fill="#c8cfc6"/><rect x="0" y="0.8" width="0.09" height="0.2" fill="#e0e5de"/><rect x="0.18" y="0.8" width="0.09" height="0.2" fill="#e0e5de"/><rect x="0.36" y="0.8" width="0.09" height="0.2" fill="#e0e5de"/><rect x="0.54" y="0.8" width="0.09" height="0.2" fill="#e0e5de"/><rect x="0.72" y="0.8" width="0.09" height="0.2" fill="#e0e5de"/><rect x="0.8999999999999999" y="0.8" width="0.09" height="0.2" fill="#e0e5de"/><rect x="0.04" y="0.16" width="0.26" height="0.62" fill="#6f8790"/><rect x="0.05" y="0.18" width="0.24" height="0.12" fill="#dfe6e8"/><rect x="0.06" y="0.21" width="0.03" height="0.09" fill="#c8372d"/><rect x="0.098" y="0.21" width="0.03" height="0.09" fill="#f2c230"/><rect x="0.136" y="0.21" width="0.03" height="0.09" fill="#5f8f4f"/><rect x="0.174" y="0.21" width="0.03" height="0.09" fill="#2f6f8f"/><rect x="0.212" y="0.21" width="0.03" height="0.09" fill="#ef7a36"/><rect x="0.25" y="0.21" width="0.03" height="0.09" fill="#e8607a"/><rect x="0.05" y="0.32999999999999996" width="0.24" height="0.12" fill="#dfe6e8"/><rect x="0.06" y="0.36" width="0.03" height="0.09" fill="#f2c230"/><rect x="0.098" y="0.36" width="0.03" height="0.09" fill="#5f8f4f"/><rect x="0.136" y="0.36" width="0.03" height="0.09" fill="#2f6f8f"/><rect x="0.174" y="0.36" width="0.03" height="0.09" fill="#ef7a36"/><rect x="0.212" y="0.36" width="0.03" height="0.09" fill="#e8607a"/><rect x="0.25" y="0.36" width="0.03" height="0.09" fill="#c8372d"/><rect x="0.05" y="0.48" width="0.24" height="0.12" fill="#dfe6e8"/><rect x="0.06" y="0.51" width="0.03" height="0.09" fill="#5f8f4f"/><rect x="0.098" y="0.51" width="0.03" height="0.09" fill="#2f6f8f"/><rect x="0.136" y="0.51" width="0.03" height="0.09" fill="#ef7a36"/><rect x="0.174" y="0.51" width="0.03" height="0.09" fill="#e8607a"/><rect x="0.212" y="0.51" width="0.03" height="0.09" fill="#c8372d"/><rect x="0.25" y="0.51" width="0.03" height="0.09" fill="#f2c230"/><rect x="0.05" y="0.6299999999999999" width="0.24" height="0.12" fill="#dfe6e8"/><rect x="0.06" y="0.6599999999999999" width="0.03" height="0.09" fill="#2f6f8f"/><rect x="0.098" y="0.6599999999999999" width="0.03" height="0.09" fill="#ef7a36"/><rect x="0.136" y="0.6599999999999999" width="0.03" height="0.09" fill="#e8607a"/><rect x="0.174" y="0.6599999999999999" width="0.03" height="0.09" fill="#c8372d"/><rect x="0.212" y="0.6599999999999999" width="0.03" height="0.09" fill="#f2c230"/><rect x="0.25" y="0.6599999999999999" width="0.03" height="0.09" fill="#5f8f4f"/><rect x="0.37" y="0.16" width="0.26" height="0.62" fill="#6f8790"/><rect x="0.38" y="0.18" width="0.24" height="0.12" fill="#dfe6e8"/><rect x="0.39" y="0.21" width="0.03" height="0.09" fill="#c8372d"/><rect x="0.428" y="0.21" width="0.03" height="0.09" fill="#f2c230"/><rect x="0.466" y="0.21" width="0.03" height="0.09" fill="#5f8f4f"/><rect x="0.504" y="0.21" width="0.03" height="0.09" fill="#2f6f8f"/><rect x="0.542" y="0.21" width="0.03" height="0.09" fill="#ef7a36"/><rect x="0.5800000000000001" y="0.21" width="0.03" height="0.09" fill="#e8607a"/><rect x="0.38" y="0.32999999999999996" width="0.24" height="0.12" fill="#dfe6e8"/><rect x="0.39" y="0.36" width="0.03" height="0.09" fill="#f2c230"/><rect x="0.428" y="0.36" width="0.03" height="0.09" fill="#5f8f4f"/><rect x="0.466" y="0.36" width="0.03" height="0.09" fill="#2f6f8f"/><rect x="0.504" y="0.36" width="0.03" height="0.09" fill="#ef7a36"/><rect x="0.542" y="0.36" width="0.03" height="0.09" fill="#e8607a"/><rect x="0.5800000000000001" y="0.36" width="0.03" height="0.09" fill="#c8372d"/><rect x="0.38" y="0.48" width="0.24" height="0.12" fill="#dfe6e8"/><rect x="0.39" y="0.51" width="0.03" height="0.09" fill="#5f8f4f"/><rect x="0.428" y="0.51" width="0.03" height="0.09" fill="#2f6f8f"/><rect x="0.466" y="0.51" width="0.03" height="0.09" fill="#ef7a36"/><rect x="0.504" y="0.51" width="0.03" height="0.09" fill="#e8607a"/><rect x="0.542" y="0.51" width="0.03" height="0.09" fill="#c8372d"/><rect x="0.5800000000000001" y="0.51" width="0.03" height="0.09" fill="#f2c230"/><rect x="0.38" y="0.6299999999999999" width="0.24" height="0.12" fill="#dfe6e8"/><rect x="0.39" y="0.6599999999999999" width="0.03" height="0.09" fill="#2f6f8f"/><rect x="0.428" y="0.6599999999999999" width="0.03" height="0.09" fill="#ef7a36"/><rect x="0.466" y="0.6599999999999999" width="0.03" height="0.09" fill="#e8607a"/><rect x="0.504" y="0.6599999999999999" width="0.03" height="0.09" fill="#c8372d"/><rect x="0.542" y="0.6599999999999999" width="0.03" height="0.09" fill="#f2c230"/><rect x="0.5800000000000001" y="0.6599999999999999" width="0.03" height="0.09" fill="#5f8f4f"/><rect x="0.7" y="0.16" width="0.26" height="0.62" fill="#6f8790"/><rect x="0.71" y="0.18" width="0.24" height="0.12" fill="#dfe6e8"/><rect x="0.72" y="0.21" width="0.03" height="0.09" fill="#c8372d"/><rect x="0.758" y="0.21" width="0.03" height="0.09" fill="#f2c230"/><rect x="0.7959999999999999" y="0.21" width="0.03" height="0.09" fill="#5f8f4f"/><rect x="0.834" y="0.21" width="0.03" height="0.09" fill="#2f6f8f"/><rect x="0.872" y="0.21" width="0.03" height="0.09" fill="#ef7a36"/><rect x="0.9099999999999999" y="0.21" width="0.03" height="0.09" fill="#e8607a"/><rect x="0.71" y="0.32999999999999996" width="0.24" height="0.12" fill="#dfe6e8"/><rect x="0.72" y="0.36" width="0.03" height="0.09" fill="#f2c230"/><rect x="0.758" y="0.36" width="0.03" height="0.09" fill="#5f8f4f"/><rect x="0.7959999999999999" y="0.36" width="0.03" height="0.09" fill="#2f6f8f"/><rect x="0.834" y="0.36" width="0.03" height="0.09" fill="#ef7a36"/><rect x="0.872" y="0.36" width="0.03" height="0.09" fill="#e8607a"/><rect x="0.9099999999999999" y="0.36" width="0.03" height="0.09" fill="#c8372d"/><rect x="0.71" y="0.48" width="0.24" height="0.12" fill="#dfe6e8"/><rect x="0.72" y="0.51" width="0.03" height="0.09" fill="#5f8f4f"/><rect x="0.758" y="0.51" width="0.03" height="0.09" fill="#2f6f8f"/><rect x="0.7959999999999999" y="0.51" width="0.03" height="0.09" fill="#ef7a36"/><rect x="0.834" y="0.51" width="0.03" height="0.09" fill="#e8607a"/><rect x="0.872" y="0.51" width="0.03" height="0.09" fill="#c8372d"/><rect x="0.9099999999999999" y="0.51" width="0.03" height="0.09" fill="#f2c230"/><rect x="0.71" y="0.6299999999999999" width="0.24" height="0.12" fill="#dfe6e8"/><rect x="0.72" y="0.6599999999999999" width="0.03" height="0.09" fill="#2f6f8f"/><rect x="0.758" y="0.6599999999999999" width="0.03" height="0.09" fill="#ef7a36"/><rect x="0.7959999999999999" y="0.6599999999999999" width="0.03" height="0.09" fill="#e8607a"/><rect x="0.834" y="0.6599999999999999" width="0.03" height="0.09" fill="#c8372d"/><rect x="0.872" y="0.6599999999999999" width="0.03" height="0.09" fill="#f2c230"/><rect x="0.9099999999999999" y="0.6599999999999999" width="0.03" height="0.09" fill="#5f8f4f"/><rect x="0" y="0.04" width="1" height="0.06" fill="#2f6f8f"/><rect x="0.4" y="0.055" width="0.2" height="0.03" fill="#f4f0e6"/></svg>